<svg width="20" height="20" viewBox="0 0 20 20" fill="none" xmlns="http://www.w3.org/2000/svg">
<path d="M4.9987 17.4993C5.91917 17.4993 6.66536 16.7532 6.66536 15.8327C6.66536 14.9122 5.91917 14.166 4.9987 14.166C4.07822 14.166 3.33203 14.9122 3.33203 15.8327C3.33203 16.7532 4.07822 17.4993 4.9987 17.4993Z" stroke="white" stroke-width="2" stroke-linecap="round" stroke-linejoin="round"/>
<path d="M14.1667 17.4993C15.0871 17.4993 15.8333 16.7532 15.8333 15.8327C15.8333 14.9122 15.0871 14.166 14.1667 14.166C13.2462 14.166 12.5 14.9122 12.5 15.8327C12.5 16.7532 13.2462 17.4993 14.1667 17.4993Z" stroke="white" stroke-width="2" stroke-linecap="round" stroke-linejoin="round"/>
<path d="M14.1654 14.1667H4.9987V2.5H3.33203" stroke="white" stroke-width="2" stroke-linecap="round" stroke-linejoin="round"/>
<path d="M13.75 2.5V10M10 6.25H17.5H10Z" stroke="white" stroke-width="2" stroke-linecap="round" stroke-linejoin="round"/>
</svg>
