<svg width="28" height="28" viewBox="0 0 28 28" fill="none" xmlns="http://www.w3.org/2000/svg">
<path d="M8.21736 3.45428C9.78799 2.63342 11.532 2.17022 13.2924 2.00014C15.3984 1.9635 17.5192 2.40756 19.4168 3.32795C21.1586 4.17233 22.7079 5.42194 23.8749 6.96905C25.2137 8.72944 26.0373 10.8699 26.2456 13.0705C26.2779 13.4304 26.1297 13.8066 25.8382 14.0265C25.3302 14.4306 24.4732 14.3644 24.1074 13.8017C23.9575 13.5873 23.922 13.3226 23.8941 13.0694C23.6835 11.2735 22.9704 9.53936 21.8542 8.11639C20.696 6.63163 19.1089 5.48538 17.3321 4.85975C15.4301 4.17999 13.3197 4.11053 11.3728 4.64319C9.33736 5.1917 7.50588 6.42764 6.20049 8.0792C6.98963 7.896 7.77439 7.6953 8.56354 7.51264C8.87689 7.44374 9.22416 7.49459 9.48229 7.69311C10.0177 8.0885 10.1374 8.96131 9.6726 9.45569C9.45385 9.70014 9.12682 9.79092 8.81729 9.85655C7.40635 10.1951 5.99486 10.5325 4.58393 10.8699C4.33619 10.929 4.08354 11.0088 3.82541 10.97C3.36549 10.9137 2.96135 10.5565 2.85197 10.1054C2.45986 8.49264 2.07213 6.87827 1.68275 5.26499C1.57994 4.86686 1.7101 4.42225 2.00979 4.1417C2.29963 3.85678 2.74479 3.75124 3.13416 3.86225C3.52955 3.97053 3.85275 4.30249 3.94736 4.70225C4.10213 5.33225 4.24815 5.96444 4.40127 6.59444C5.43924 5.30053 6.74025 4.21389 8.21736 3.45428Z" fill="#78909C"/>
<path d="M1.73856 14.9256C1.68497 14.3021 2.22145 13.712 2.84598 13.6989C3.45466 13.6552 4.02395 14.1627 4.06333 14.7692C4.24981 16.5077 4.89677 18.1959 5.93528 19.6035C7.1663 21.2857 8.94036 22.5632 10.9277 23.1932C13.5254 24.0343 16.4675 23.7401 18.8432 22.3915C19.9708 21.7566 20.9661 20.8947 21.7717 19.883C21 20.0695 20.2279 20.2549 19.4562 20.4413C19.1658 20.5179 18.8421 20.5108 18.5768 20.3588C17.9862 20.0295 17.7872 19.1638 18.1836 18.6142C18.3548 18.3709 18.6348 18.227 18.9208 18.1663C20.5259 17.7874 22.1288 17.3991 23.7333 17.0168C24.3179 16.8834 24.9884 17.2498 25.1262 17.8475C25.526 19.4952 25.9165 21.1452 26.3157 22.7929C26.384 23.0745 26.3561 23.3857 26.2019 23.6356C25.8432 24.2268 24.9332 24.3974 24.4033 23.9413C24.1752 23.7527 24.0664 23.4661 24.0117 23.1839C23.8679 22.578 23.7197 21.9737 23.5731 21.3688C22.2682 22.9909 20.562 24.2941 18.6337 25.0832C16.111 26.131 13.2317 26.2896 10.6083 25.5311C7.4277 24.6337 4.65833 22.3926 3.1145 19.4717C2.36364 18.0663 1.89387 16.5115 1.73856 14.9256Z" fill="#78909C"/>
</svg>
