<svg width="85" height="55" viewBox="0 0 85 55" fill="none" xmlns="http://www.w3.org/2000/svg">
<path d="M83.4312 15.3089L42.8337 0.197964C42.4548 0.0645223 42.0222 0.0655328 41.6439 0.200743L1.1174 15.5012C0.468977 15.7445 0.0377592 16.3634 0.0393907 17.0619C0.0410222 17.7604 0.475127 18.3773 1.12468 18.6175L17.1201 24.5712L17.1568 40.2873C17.1813 50.7916 33.8194 54.0034 39.8766 53.9893L44.8793 53.9776C46.5829 53.9736 50.665 53.4805 55.0154 52.1002C55.9072 51.8295 56.3917 50.8881 56.1192 50.0021C55.8468 49.1162 54.8992 48.6349 54.0074 48.9056C50.2784 50.0695 46.4398 50.6158 44.8985 50.6194L39.8958 50.6311C35.6503 50.641 20.5825 48.1777 20.564 40.2793L20.5303 25.8259L41.7492 33.7284C41.9387 33.8086 42.1551 33.835 42.3444 33.8345C42.5337 33.8341 42.75 33.8067 42.9391 33.7257L62.1216 26.4809L62.1518 39.4031C59.6927 40.1342 57.8863 42.422 57.8925 45.1085C57.8988 47.795 59.7159 50.0743 62.1784 50.7939L62.1832 52.8626C62.1854 53.8029 62.9443 54.5264 63.8637 54.5243C64.8101 54.5221 65.5385 53.7682 65.5363 52.8547L65.5315 50.7861C67.9906 50.055 69.797 47.7672 69.7907 45.0807C69.7845 42.3942 67.9673 40.1149 65.5049 39.3953L65.4718 25.2104L83.4385 18.4253C84.0869 18.182 84.5181 17.5631 84.5165 16.8646C84.5149 16.1661 84.0808 15.5492 83.4312 15.3089ZM66.4376 45.0885C66.4409 46.5124 65.2809 47.6703 63.8477 47.6737C62.4145 47.677 61.249 46.5245 61.2457 45.1007C61.2424 43.6768 62.4024 42.5189 63.8356 42.5156C65.2418 42.5123 66.4343 43.6647 66.4376 45.0885ZM63.7613 22.2861L46.7105 16.0126C46.7373 15.8782 46.764 15.7438 46.7637 15.6095C46.7595 13.8364 44.8637 12.5781 42.2677 12.5842C39.6718 12.5903 37.7819 13.8842 37.786 15.6305C37.7882 16.5707 38.547 17.2943 39.4664 17.2922C40.2236 17.2904 40.8444 16.8054 41.0591 16.1333C41.2753 16.0522 41.6806 15.9169 42.2485 15.9156C42.8163 15.9142 43.2222 16.0207 43.4388 16.1277C43.466 16.2082 43.5203 16.3156 43.5476 16.3961C43.5207 16.4768 43.4668 16.5306 43.4399 16.6113C43.1174 17.4717 43.5523 18.4379 44.4455 18.7582L58.9251 24.0705L42.2552 30.3691L6.44818 17.0469L42.1926 3.55763L77.9996 16.8798L63.7613 22.2861Z" fill="#CFD8DC"/>
</svg>
